<?xml version="1.0" encoding="utf-8"?>
<!-- Generated by Mocodo 4.2.12 -->
<svg width="254" height="86" viewBox="0 0 254 86" xmlns="http://www.w3.org/2000/svg">
<rect x="0" y="0" width="254" height="86" fill="#ffffbf" stroke="none" stroke-width="0"/>

<!-- Association BELONG -->
<g>
	<line x1="37" y1="43" x2="130" y2="43" stroke="#f46d43" stroke-width="2"/>
	<line x1="220" y1="43" x2="130" y2="43" stroke="#f46d43" stroke-width="2"/>
	<g>
		<path d="M149 18 a14 14 90 0 1 14 14 V43 h-66 V32 a14 14 90 0 1 14 -14" fill="#fdae61" stroke="#fdae61" stroke-width="0"/>
		<path d="M163 43 v11 a14 14 90 0 1 -14 14 H111 a14 14 90 0 1 -14 -14 V43 H66" fill="#fee08b" stroke="#fee08b" stroke-width="0"/>
		<rect x="97" y="18" width="66" height="50" fill="none" rx="14" stroke="#f46d43" stroke-width="2"/>
		<line x1="97" y1="43" x2="163" y2="43" stroke="#f46d43" stroke-width="1"/>
		<text x="105" y="35.75" fill="#000000" font-family="Verdana" font-size="12">BELONG</text>
	</g>
	<text x="70" y="60" fill="#1a9850" font-family="Verdana" font-size="12">0,1</text>
	<text x="169" y="60" fill="#1a9850" font-family="Verdana" font-size="12">1,1</text>
</g>

<!-- Entity PLAYER -->
<g>
	<g>
		<rect x="9" y="18" width="56" height="25" fill="#a6d96a" stroke="none" stroke-width="0" opacity="1"/>
		<rect x="9" y="43" width="56" height="25" fill="#d9ef8b" stroke="none" stroke-width="0" opacity="1"/>
		<rect x="9" y="18" width="56" height="50" fill="none" stroke="#66bd63" stroke-width="2" opacity="1"/>
		<line x1="9" y1="43" x2="65" y2="43" stroke="#66bd63" stroke-width="1"/>
	</g>
	<text x="14" y="35.75" fill="#000000" font-family="Verdana" font-size="12">PLAYER</text>
	<text x="14" y="60.8" fill="#000000" font-family="Verdana" font-size="12">pseudo</text>
	<line x1="14" y1="63" x2="58" y2="63" stroke="#000000" stroke-width="1"/>
</g>

<!-- Entity SLIME -->
<g>
	<g>
		<rect x="195" y="9" width="50" height="25" fill="#a6d96a" stroke="none" stroke-width="0" opacity="1"/>
		<rect x="195" y="34" width="50" height="43" fill="#d9ef8b" stroke="none" stroke-width="0" opacity="1"/>
		<rect x="195" y="9" width="50" height="68" fill="none" stroke="#66bd63" stroke-width="2" opacity="1"/>
		<line x1="195" y1="34" x2="245" y2="34" stroke="#66bd63" stroke-width="1"/>
	</g>
	<text x="201" y="26.75" fill="#000000" font-family="Verdana" font-size="12">SLIME</text>
	<text x="200" y="51.8" fill="#000000" font-family="Verdana" font-size="12">name</text>
	<line x1="200" y1="54" x2="235" y2="54" stroke="#000000" stroke-width="1"/>
	<text x="200" y="68.8" fill="#000000" font-family="Verdana" font-size="12">color</text>
</g>
</svg>